# xmcd
# Track frame offsets:
# 150
# 16737
# 32606
# 53492
# 68327
# 91741
# 108114
# 121916
# 141134
# 157037
# 180118
# 192011
#
# Disc length: 2870 seconds
# Revision: 0
# Processed by: cddbd v1.5.2PL0 Copyright (c) Steve Scherf et al.
# Submitted via: VisiTrax 2.11.1.266 - For more info visit www.synapsa.com
#
DISCID=7e0b340c
DTITLE=Mitch Jacobs - Jukebox Music
DYEAR=2008
DGENRE=Country
TTITLE0=Jukebox Fool
TTITLE1=Pettin' Party
TTITLE2=Pretty Is
TTITLE3=Dream Baby
TTITLE4=Reason, The
TTITLE5=Waltz, The
TTITLE6=Lady on the Barstool
TTITLE7=Woman of My Dreams
TTITLE8=Outside Dog
TTITLE9=Alone
TTITLE10=For a While
TTITLE11=Walls and Stones
EXTD=Steady Boy Records\nSubmitted by Larry@LosSenderosStudio.com
EXTT0=
EXTT1=
EXTT2=
EXTT3=
EXTT4=
EXTT5=
EXTT6=
EXTT7=
EXTT8=
EXTT9=
EXTT10=
EXTT11=
PLAYORDER=
